<svg id="Layer_2" height="512" viewBox="0 0 512 512" width="512" xmlns="http://www.w3.org/2000/svg" xmlns:xlink="http://www.w3.org/1999/xlink" data-name="Layer 2"><linearGradient id="linear-gradient" gradientUnits="userSpaceOnUse" x1="180.44" x2="442.16" y1="232.25" y2="493.97"><stop offset="0" stop-opacity=".35"/><stop offset="1" stop-opacity="0"/></linearGradient><g id="Social_Icon" data-name="Social Icon"><g id="Avatar"><rect id="Background" fill="#1565c0" height="512" rx="150" width="512"/><path d="m512 283.94v78.06c0 82.84-67.16 150-150 150h-181.68l-77.18-77.19 180.38-119.46-93.1-93.09 129.95-129.95z" fill="url(#linear-gradient)"/><g id="Avatar-2" data-name="Avatar"><g><path d="m256 282.8c24.52 0 47.13-6.93 65.27-18.61 13.96-8.99 32.33-7.44 44.62 3.72 32.97 29.95 53.64 73.19 53.57 121.25l-.03 19.8c-.04 20.47-16.64 37.04-37.11 37.04h-252.63c-20.47 0-37.07-16.58-37.11-37.04l-.03-19.8c-.07-48.05 20.6-91.29 53.57-121.25 12.29-11.17 30.66-12.72 44.62-3.72 18.14 11.68 40.75 18.61 65.27 18.61z" fill="#bbdefb"/><circle cx="256" cy="157.89" fill="#e3f2fd" r="91.89"/></g></g></g></g></svg>